<svg width="77" height="23" viewBox="0 0 77 23" fill="none" xmlns="http://www.w3.org/2000/svg">
<path d="M47.9295 17.9891C43.4914 21.2557 37.065 22.9997 31.5279 22.9997C24.1307 23.0366 16.9861 20.3108 11.4934 15.356C11.0812 14.982 11.4552 14.4707 11.9513 14.7607C17.6564 18.0807 24.7085 20.0765 31.9935 20.0765C36.9086 20.0765 42.3122 19.0615 47.2846 16.9512C48.0325 16.6306 48.6622 17.4434 47.9295 17.9891Z" fill="#666666"/>
<path d="M49.7688 15.8788C50.3413 16.6038 49.1392 19.5995 48.6049 20.9351C48.4447 21.3396 48.7919 21.5037 49.1583 21.1984C51.5395 19.2064 52.1501 15.0392 51.6654 14.4363C51.1808 13.8334 47.0213 13.322 44.4874 15.1079C44.0943 15.3789 44.1592 15.7567 44.5942 15.7071C46.0253 15.5353 49.2041 15.1537 49.7688 15.8788ZM44.6934 2.51481V0.778482C44.6934 0.515171 44.8957 0.339632 45.1323 0.339632H52.898C53.1461 0.339632 53.3445 0.518987 53.3445 0.778482V2.26676C53.3445 2.51481 53.1346 2.83918 52.7607 3.35435L48.7385 9.09758C50.2344 9.05942 51.8105 9.28457 53.1652 10.0478C53.4705 10.2195 53.5544 10.4714 53.5811 10.7232V12.574C53.5811 12.8259 53.2987 13.1197 53.0087 12.9671C51.7395 12.3136 50.3321 11.974 48.9045 11.9766C47.477 11.9793 46.0709 12.3242 44.8041 12.9824C44.537 13.1274 44.2546 12.8335 44.2546 12.5817V10.8263C44.2546 10.5439 44.2546 10.0631 44.5408 9.63183L49.1964 2.95366H45.1399C44.8919 2.95366 44.6896 2.7743 44.6896 2.51862M16.3742 13.3334H14.0082C13.9027 13.3254 13.8033 13.2811 13.7267 13.2081C13.6502 13.135 13.6013 13.0378 13.5884 12.9328V0.809012C13.5884 0.564782 13.7907 0.373976 14.0464 0.373976H16.2482C16.4772 0.381608 16.6604 0.560965 16.6756 0.778482V2.36216H16.7176C17.29 0.831907 18.3738 0.1183 19.8277 0.1183C21.3084 0.1183 22.2319 0.831907 22.8959 2.36216C23.1318 1.69065 23.5749 1.11146 24.1613 0.708152C24.7478 0.304847 25.4472 0.0982937 26.1586 0.1183C26.6861 0.108905 27.2083 0.223897 27.683 0.453957C28.1577 0.684017 28.5716 1.02267 28.891 1.44249C29.6389 2.46138 29.4863 3.94584 29.4863 5.24332V12.8946C29.4853 12.9536 29.4726 13.0117 29.449 13.0658C29.4254 13.1198 29.3914 13.1687 29.3488 13.2095C29.3062 13.2503 29.256 13.2822 29.201 13.3035C29.146 13.3248 29.0873 13.335 29.0284 13.3334H26.67C26.5571 13.326 26.451 13.277 26.3721 13.196C26.2932 13.115 26.2471 13.0076 26.2426 12.8946V6.46828C26.2426 5.95693 26.2884 4.68235 26.1777 4.19771C26.0022 3.38488 25.4718 3.15591 24.7887 3.15591C24.2163 3.15591 23.6209 3.53752 23.3767 4.1481C23.1325 4.75867 23.1592 5.78139 23.1592 6.46828V12.8946C23.1582 12.9536 23.1455 13.0117 23.1219 13.0658C23.0983 13.1198 23.0643 13.1687 23.0217 13.2095C22.9791 13.2503 22.9289 13.2822 22.8739 13.3035C22.8189 13.3248 22.7602 13.335 22.7013 13.3334H20.3467C20.2336 13.3277 20.127 13.2791 20.0483 13.1976C19.9697 13.1161 19.9249 13.0078 19.9231 12.8946L19.9193 6.46828C19.9193 5.11739 20.1407 3.1292 18.4654 3.1292C16.7672 3.1292 16.8321 5.06778 16.8321 6.46828V12.8946C16.8311 12.9536 16.8185 13.0117 16.7949 13.0658C16.7713 13.1198 16.7372 13.1687 16.6946 13.2095C16.652 13.2503 16.6018 13.2822 16.5468 13.3035C16.4918 13.3248 16.4331 13.335 16.3742 13.3334ZM60.0341 0.1183C63.5373 0.1183 65.4339 3.1292 65.4339 6.95675C65.4339 10.6507 63.3351 13.5853 60.0303 13.5853C56.5882 13.5853 54.7145 10.5744 54.7145 6.827C54.7145 3.04906 56.6149 0.1183 60.0341 0.1183ZM60.0456 2.59113C58.3055 2.59113 58.1948 4.96474 58.1948 6.44539C58.1948 7.92604 58.1719 11.0896 60.0265 11.0896C61.8582 11.0896 61.9422 8.53279 61.9422 6.97964C61.9422 5.95693 61.904 4.73578 61.5911 3.76649C61.324 2.92313 60.7974 2.59113 60.0456 2.59113ZM69.9789 13.3334H67.6244C67.5122 13.3251 67.407 13.2757 67.3289 13.1948C67.2508 13.1139 67.2052 13.007 67.2008 12.8946L67.197 0.767037C67.2103 0.656105 67.2647 0.554196 67.3495 0.481427C67.4342 0.408658 67.5432 0.370316 67.6549 0.373976H69.8415C69.9384 0.378801 70.0313 0.414298 70.1068 0.475342C70.1822 0.536386 70.2363 0.619823 70.2613 0.713611V2.56442H70.3071C70.9673 0.908231 71.8946 0.1183 73.5279 0.1183C74.5849 0.1183 75.6191 0.499908 76.2831 1.54552C76.9013 2.51481 76.9013 4.1481 76.9013 5.32345V12.9518C76.8831 13.0596 76.8269 13.1574 76.7429 13.2274C76.6589 13.2973 76.5527 13.335 76.4434 13.3334H74.0774C73.9747 13.3263 73.8775 13.2847 73.8013 13.2155C73.7251 13.1462 73.6745 13.0534 73.6576 12.9518V6.36525C73.6576 5.04107 73.8103 3.10249 72.1808 3.10249C71.6084 3.10249 71.0741 3.4841 70.8146 4.07178C70.4826 4.8121 70.4406 5.54861 70.4406 6.36525V12.8946C70.4357 13.0134 70.3848 13.1256 70.2986 13.2075C70.2124 13.2894 70.0978 13.3345 69.9789 13.3334ZM38.5075 7.54443V7.03307C36.7941 7.03307 34.9929 7.3956 34.9929 9.4105C34.9929 10.4294 35.5234 11.1201 36.4316 11.1201C37.0918 11.1201 37.6909 10.7118 38.0649 10.0478C38.5304 9.23114 38.5075 8.46411 38.5075 7.54443ZM40.8888 13.2991C40.8125 13.3637 40.7185 13.4037 40.6191 13.4139C40.5196 13.4241 40.4195 13.404 40.3316 13.3563C39.5455 12.7076 39.4043 12.4023 38.9731 11.7803C37.6756 13.1045 36.7598 13.4975 35.0807 13.4975C33.0925 13.4975 31.547 12.2764 31.547 9.81882C31.547 7.90314 32.5811 6.59422 34.0656 5.95693C35.3478 5.39215 37.1376 5.29293 38.5075 5.13647V4.83118C38.5075 4.27021 38.5457 3.60621 38.2175 3.12157C37.9313 2.68653 37.378 2.50717 36.8895 2.50717C35.9927 2.50717 35.1914 2.96511 34.9929 3.92295C34.9548 4.13665 34.7983 4.34654 34.5808 4.35798L32.2911 4.10994C32.1003 4.06796 31.8828 3.9115 31.94 3.61384C32.4667 0.83954 34.9776 0 37.2253 0C38.3702 0 39.8737 0.305288 40.7819 1.17917C41.9306 2.24768 41.8199 3.68254 41.8199 5.2395V8.92204C41.8199 10.0287 42.2778 10.5133 42.7129 11.1125C42.8617 11.3224 42.8961 11.578 42.7014 11.7383C42.2206 12.1428 41.3658 12.887 40.8926 13.3067L40.8888 13.2991ZM7.53991 7.54443V7.03307C5.8303 7.03307 4.0291 7.3956 4.0291 9.4105C4.0291 10.4294 4.55572 11.1201 5.46395 11.1201C6.12795 11.1201 6.72326 10.7118 7.09724 10.0478C7.5628 9.23114 7.53991 8.46411 7.53991 7.54443ZM9.92115 13.2991C9.84486 13.3637 9.75084 13.4037 9.65143 13.4139C9.55201 13.4241 9.45183 13.404 9.364 13.3563C8.57789 12.7076 8.44051 12.4023 8.00929 11.7803C6.71181 13.1045 5.79595 13.4975 4.11687 13.4975C2.12868 13.4975 0.579346 12.2764 0.579346 9.81882C0.579346 7.90314 1.61732 6.59422 3.09797 5.95693C4.38018 5.39215 6.16993 5.29293 7.53991 5.13647V4.83118C7.53991 4.27021 7.58189 3.60621 7.2537 3.12157C6.96368 2.68653 6.41416 2.50717 5.92951 2.50717C5.02892 2.50717 4.22372 2.96511 4.0291 3.92295C3.99094 4.13665 3.83066 4.34654 3.62078 4.35798L1.3273 4.10994C1.1365 4.06796 0.922795 3.9115 0.97622 3.61384C1.50284 0.83954 4.01002 0 6.2577 0C7.40634 0 8.90989 0.305288 9.8143 1.17917C10.9629 2.24768 10.8561 3.68254 10.8561 5.2395V8.92204C10.8561 10.0287 11.314 10.5133 11.7452 11.1125C11.8979 11.3224 11.9322 11.578 11.7376 11.7383C11.2568 12.1428 10.402 12.887 9.92878 13.3067L9.92115 13.2991Z" fill="#666666"/>
</svg>
