<svg width="69" height="17" viewBox="0 0 69 17" fill="none" xmlns="http://www.w3.org/2000/svg">
<path d="M16.2047 15.8702H12.3786L11.2056 12.9549H4.83L3.7605 15.8702H0L5.75115 1.14046H9.867L16.2047 15.8702ZM7.866 4.65807L5.7753 10.3818H10.1672L7.866 4.65807ZM30.1082 1.14046H33.2028V15.8702H29.6493V6.66813L25.8026 11.2906H25.254L21.4073 6.66813V15.8702H17.8538V1.14046H20.9484L25.5266 6.60398L30.1082 1.14046ZM42.2107 1.14046C47.4202 1.14046 50.094 4.487 50.094 8.52495C50.094 12.7589 47.5031 15.8702 41.814 15.8702H35.9145V1.14046H42.2107ZM39.4715 13.1723H41.7933C45.3675 13.1723 46.437 10.6633 46.437 8.50357C46.437 5.97673 45.1191 3.83837 41.7519 3.83837H39.4749L39.4715 13.1723ZM57.1699 4.63312L52.685 0H69V16.8574L64.515 12.2279V4.63312H57.1699ZM57.1631 5.55975L52.547 10.3283V17H59.0054L63.6215 12.235H57.1631V5.55975Z" fill="#666666"/>
</svg>
