<svg width="9" height="16" viewBox="0 0 9 16" fill="none" xmlns="http://www.w3.org/2000/svg">
<path d="M0 10.6667H1.8C1.8 11.6267 3.033 12.4444 4.5 12.4444C5.967 12.4444 7.2 11.6267 7.2 10.6667C7.2 9.68889 6.264 9.33333 4.284 8.86222C2.376 8.39111 0 7.80444 0 5.33333C0 3.74222 1.323 2.39111 3.15 1.93778V0H5.85V1.93778C7.677 2.39111 9 3.74222 9 5.33333H7.2C7.2 4.37333 5.967 3.55556 4.5 3.55556C3.033 3.55556 1.8 4.37333 1.8 5.33333C1.8 6.31111 2.736 6.66667 4.716 7.13778C6.624 7.60889 9 8.19556 9 10.6667C9 12.2578 7.677 13.6089 5.85 14.0622V16H3.15V14.0622C1.323 13.6089 0 12.2578 0 10.6667Z" fill="white"/>
</svg>
