<svg width="55" height="23" viewBox="0 0 55 23" fill="none" xmlns="http://www.w3.org/2000/svg">
<path d="M14.2053 11.8033V0.5H16.9053V7.45196C18.2328 5.83688 20.0598 5.37051 21.8598 5.37051C24.8748 5.37051 28.2228 7.44737 28.2228 11.9296C28.2228 12.4649 28.1891 12.9795 28.0878 13.4643C28.6278 11.2749 30.9543 10.4662 34.6038 10.3766C35.7513 10.3352 37.0676 10.3352 38.1138 10.3352V10.0251C38.1138 7.99185 36.8628 7.16709 34.6713 7.16709C33.0513 7.16709 31.8701 7.85631 31.7351 9.02799H28.8663C29.1723 6.06433 32.2413 5.30618 34.9098 5.30618C37.3038 5.30618 39.3986 5.92648 40.3436 7.64954L39.3626 5.71972H42.5351L47.1588 15.1965L51.7826 5.71742H54.5793L46.2093 22.5H43.1808L45.5883 17.8133L40.3458 7.75063C40.6383 8.33647 40.7958 9.02569 40.7958 9.88722V15.5388C40.7958 16.3338 40.8183 17.1241 40.8858 17.8477H38.3793C38.3134 17.2643 38.2789 16.6776 38.2758 16.0902C36.9191 17.7765 35.3058 18.2957 33.0558 18.2957C29.7258 18.2957 27.9438 16.5038 27.9438 14.4016C27.9468 14.0585 27.9746 13.7484 28.0271 13.4712C27.3521 16.3338 24.9671 18.2636 21.8013 18.2636C19.8438 18.2636 17.9898 17.5399 16.8513 16.127C16.8513 16.6784 16.8176 17.2619 16.7613 17.8133H14.1063C14.1513 16.9173 14.1963 15.849 14.1963 14.953V12.5407H3.32885C3.4751 15.0564 5.16935 16.5382 7.4981 16.5382C9.1136 16.5382 10.5468 15.849 11.0261 14.4016H13.8161C13.2761 17.3653 10.1936 18.3647 7.5386 18.3647C2.71685 18.4129 0.579346 15.6859 0.579346 12.033C0.579346 8.00334 2.78885 5.34753 7.59035 5.34753C11.3883 5.34753 14.1828 7.38304 14.2053 11.7941V11.8056V11.8033ZM34.7636 12.2237C32.2998 12.3018 30.7811 12.759 30.7811 14.4062C30.7811 15.4745 31.5911 16.6347 33.7173 16.6347C36.5523 16.6347 38.0711 15.0495 38.0711 12.4672V12.1685C37.0586 12.1685 35.8436 12.1823 34.7321 12.2191H34.7591L34.7636 12.2237ZM21.1286 16.5313C23.6261 16.5313 25.3496 14.6796 25.3496 11.8906C25.3496 9.1015 23.6216 7.24979 21.0903 7.24979C18.5928 7.24979 16.8378 9.1015 16.8378 11.8906C16.8378 14.6796 18.5591 16.5313 21.0566 16.5313H21.1241H21.1286ZM11.3411 10.7556C11.2421 8.17105 9.4196 7.20384 7.45985 7.20384C5.33585 7.20384 3.64835 8.29281 3.3761 10.7556H11.3411Z" fill="#666666"/>
</svg>
