<svg width="48" height="23" viewBox="0 0 48 23" fill="none" xmlns="http://www.w3.org/2000/svg">
<path d="M21.9084 16.4842C20.8584 16.4842 20.2471 15.7724 20.2471 13.9225V7.39467L23.7375 7.66585L23.9149 5.98547L20.3286 6.16464V2.46005H19.2786C18.7608 5.36803 17.4591 6.42614 15.7115 6.60532V7.48668H17.7947V14.9007C17.7947 16.9249 19.2043 17.9782 20.9423 17.9782C22.3447 17.9782 23.8238 17.3608 24.3416 16.1307L23.8214 15.5133C23.5625 15.9491 22.8577 16.4842 21.9084 16.4842ZM13.5324 14.5399C12.8276 16.2106 11.6938 16.3051 10.5599 16.3051H6.89207C5.67427 16.3051 5.14448 15.8547 5.14448 14.8039V9.33655C5.14448 9.33655 7.76227 9.33656 8.63727 9.43099C9.33486 9.51573 9.68726 9.69491 9.94616 10.5763L10.2051 11.8135H11.2551L11.1616 8.64406L11.339 5.54963H10.2986L9.94616 6.9661C9.77116 7.9322 9.59377 8.02663 8.63727 8.19612C7.41947 8.28813 5.14448 8.28813 5.14448 8.28813V1.76513C5.14448 1.49395 5.14448 1.4092 5.58797 1.4092H11.0801C12.0437 1.4092 12.5663 2.19855 12.9092 3.78208L13.2615 5.02179H14.218C14.3115 1.49395 14.3954 0 14.3954 0C14.3954 0 12.0437 0.254237 10.651 0.254237H3.66778L0 0.179176V1.14528L1.2178 1.40436C2.09759 1.58353 2.35649 1.76029 2.35649 2.54964C2.35649 2.54964 2.44998 4.9322 2.44998 8.89103C2.44998 12.8596 2.35649 15.2421 2.35649 15.2421C2.35649 15.9467 2.09759 16.2082 1.2178 16.3874L0 16.661V17.6198L3.75169 17.5351H10.0397C11.4325 17.5351 14.7502 17.6198 14.7502 17.6198C14.8317 16.7458 15.268 12.8644 15.3615 12.4237H14.4793L13.5324 14.5399ZM28.0118 8.19128C28.0118 7.04358 29.0594 6.60532 30.1094 6.60532C30.9724 6.60532 31.6748 6.96125 31.857 7.39225L32.4683 9.15738L33.3337 9.07263C33.3337 8.19128 33.4248 7.04358 33.5998 6.16464C32.8135 5.80871 31.2433 5.62954 30.1933 5.62954C27.8344 5.62954 26.0053 6.69733 26.0053 8.98789C26.0053 13.0412 31.8546 12.1598 31.8546 15.1598C31.8546 16.1259 31.2409 16.9249 29.7546 16.9249C28.3618 16.9249 27.7481 16.2131 27.4892 15.5085L26.794 13.8305H25.9094C26.0053 14.983 26.0868 16.1259 25.9094 17.1767C25.9094 17.1767 27.7481 17.8886 29.5796 17.8886C32.0296 17.8886 34.0337 16.661 34.0337 14.3608C34.0337 10.3075 28.0118 10.9201 28.0118 8.19128ZM43.2798 5.90314V6.7845L43.9007 6.96368C44.5048 7.13317 44.7637 7.39467 44.7637 7.84261C44.7637 8.10411 44.6822 8.19128 44.5887 8.54721C44.3298 9.25181 42.6661 13.3971 41.8031 15.247C40.8811 12.8853 40.0075 10.5047 39.1829 8.10653C39.099 7.92977 39.099 7.84503 39.099 7.75302C39.099 7.39467 39.3507 7.046 39.9644 6.96368L40.7531 6.7845V5.90314L37.5264 6.0799L34.8991 5.98547V6.87651L35.3474 7.04358C35.9491 7.22276 36.0354 7.30992 36.4717 8.28329C38.1329 11.9879 39.9644 16.8281 40.5853 18.3317C39.1853 20.799 37.699 21.5012 36.5651 21.5012C35.8676 21.5012 35.6086 21.1453 35.5223 20.7046L35.1724 18.8571L34.2135 18.9419C34.0385 20.0968 33.8611 21.3244 33.6022 22.2905C34.2902 22.7312 35.0789 23.0024 36.1265 23C37.7829 23 40.1418 22.5593 42.4144 17.3535L46.2524 8.28087C46.6 7.57142 46.6887 7.48426 47.5613 7.12832L48 6.77966V5.90314L45.7346 5.98547L43.2798 5.90314Z" fill="#666666"/>
</svg>
