<svg width="23" height="22" viewBox="0 0 23 22" fill="none" xmlns="http://www.w3.org/2000/svg">
<path d="M11.2313 0.810806C9.80835 0.810806 8.3993 1.08162 7.08464 1.60778C5.76998 2.13394 4.57545 2.90514 3.56925 3.87736C1.53714 5.84083 0.395508 8.50388 0.395508 11.2807C0.395508 15.9083 3.50539 19.8345 7.80721 21.227C8.349 21.3108 8.52237 20.9862 8.52237 20.7035V18.9341C5.52085 19.5623 4.88154 17.5312 4.88154 17.5312C4.38309 16.3167 3.67876 15.9921 3.67876 15.9921C2.6927 15.343 3.75461 15.3639 3.75461 15.3639C4.83819 15.4372 5.41249 16.4423 5.41249 16.4423C6.35521 18.0337 7.94807 17.5626 8.56572 17.3113C8.66324 16.6308 8.94497 16.1701 9.24837 15.9083C6.84282 15.6466 4.31807 14.7462 4.31807 10.7572C4.31807 9.59501 4.72984 8.6632 5.43417 7.91984C5.32581 7.65809 4.94655 6.56923 5.54252 5.1558C5.54252 5.1558 6.45273 4.87311 8.52237 6.22372C9.3784 5.99338 10.3103 5.87822 11.2313 5.87822C12.1524 5.87822 13.0843 5.99338 13.9403 6.22372C16.0099 4.87311 16.9201 5.1558 16.9201 5.1558C17.5161 6.56923 17.1369 7.65809 17.0285 7.91984C17.7328 8.6632 18.1446 9.59501 18.1446 10.7572C18.1446 14.7567 15.609 15.6361 13.1926 15.8979C13.5827 16.2224 13.9403 16.8611 13.9403 17.8348V20.7035C13.9403 20.9862 14.1137 21.3213 14.6663 21.227C18.9681 19.8241 22.0672 15.9083 22.0672 11.2807C22.0672 9.90574 21.7869 8.54428 21.2423 7.27402C20.6978 6.00376 19.8996 4.84957 18.8934 3.87736C17.8872 2.90514 16.6927 2.13394 15.378 1.60778C14.0634 1.08162 12.6543 0.810806 11.2313 0.810806Z" fill="url(#paint0_linear_2_50)"/>
<defs>
<linearGradient id="paint0_linear_2_50" x1="11.2313" y1="0.810806" x2="11.2313" y2="21.2432" gradientUnits="userSpaceOnUse">
<stop stopColor="white"/>
<stop offset="1" stopColor="#2B2B2B"/>
</linearGradient>
</defs>
</svg>
