<svg width="468" height="250" viewBox="0 0 468 250" fill="none" xmlns="http://www.w3.org/2000/svg">
<path d="M13 0.249997C13 0.111926 13.1119 0 13.25 0C13.3881 0 13.5 0.111929 13.5 0.25V249.75C13.5 249.888 13.3881 250 13.25 250C13.1119 250 13 249.888 13 249.75V0.249997Z" fill="url(#paint0_radial_185_63)"/>
<path d="M37.5 0.249997C37.5 0.111926 37.6119 0 37.75 0C37.8881 0 38 0.111929 38 0.25V249.75C38 249.888 37.8881 250 37.75 250C37.6119 250 37.5 249.888 37.5 249.75V0.249997Z" fill="url(#paint1_radial_185_63)"/>
<path d="M62 0.249997C62 0.111926 62.1119 0 62.25 0C62.3881 0 62.5 0.111929 62.5 0.25V249.75C62.5 249.888 62.3881 250 62.25 250C62.1119 250 62 249.888 62 249.75V0.249997Z" fill="url(#paint2_radial_185_63)"/>
<path d="M86.5 0.249997C86.5 0.111926 86.6119 0 86.75 0C86.8881 0 87 0.111929 87 0.25V249.75C87 249.888 86.8881 250 86.75 250C86.6119 250 86.5 249.888 86.5 249.75V0.249997Z" fill="url(#paint3_radial_185_63)"/>
<path d="M111 0.249997C111 0.111926 111.112 0 111.25 0C111.388 0 111.5 0.111929 111.5 0.25V249.75C111.5 249.888 111.388 250 111.25 250C111.112 250 111 249.888 111 249.75V0.249997Z" fill="url(#paint4_radial_185_63)"/>
<path d="M135.5 0.249997C135.5 0.111926 135.612 0 135.75 0C135.888 0 136 0.111929 136 0.25V249.75C136 249.888 135.888 250 135.75 250C135.612 250 135.5 249.888 135.5 249.75V0.249997Z" fill="url(#paint5_radial_185_63)"/>
<path d="M160 0.249997C160 0.111926 160.112 0 160.25 0C160.388 0 160.5 0.111929 160.5 0.25V249.75C160.5 249.888 160.388 250 160.25 250C160.112 250 160 249.888 160 249.75V0.249997Z" fill="url(#paint6_radial_185_63)"/>
<path d="M184.5 0.249997C184.5 0.111926 184.612 0 184.75 0C184.888 0 185 0.111929 185 0.25V249.75C185 249.888 184.888 250 184.75 250C184.612 250 184.5 249.888 184.5 249.75V0.249997Z" fill="url(#paint7_radial_185_63)"/>
<path d="M209 0.249997C209 0.111926 209.112 0 209.25 0C209.388 0 209.5 0.111929 209.5 0.25V249.75C209.5 249.888 209.388 250 209.25 250C209.112 250 209 249.888 209 249.75V0.249997Z" fill="url(#paint8_radial_185_63)"/>
<path d="M233.5 0.249997C233.5 0.111926 233.612 0 233.75 0C233.888 0 234 0.111929 234 0.25V249.75C234 249.888 233.888 250 233.75 250C233.612 250 233.5 249.888 233.5 249.75V0.249997Z" fill="url(#paint9_radial_185_63)"/>
<path d="M258 0.249997C258 0.111926 258.112 0 258.25 0C258.388 0 258.5 0.111929 258.5 0.25V249.75C258.5 249.888 258.388 250 258.25 250C258.112 250 258 249.888 258 249.75V0.249997Z" fill="url(#paint10_radial_185_63)"/>
<path d="M282.5 0.249997C282.5 0.111926 282.612 0 282.75 0C282.888 0 283 0.111929 283 0.25V249.75C283 249.888 282.888 250 282.75 250C282.612 250 282.5 249.888 282.5 249.75V0.249997Z" fill="url(#paint11_radial_185_63)"/>
<path d="M307 0.249997C307 0.111926 307.112 0 307.25 0C307.388 0 307.5 0.111929 307.5 0.25V249.75C307.5 249.888 307.388 250 307.25 250C307.112 250 307 249.888 307 249.75V0.249997Z" fill="url(#paint12_radial_185_63)"/>
<path d="M331.5 0.249997C331.5 0.111926 331.612 0 331.75 0C331.888 0 332 0.111929 332 0.25V249.75C332 249.888 331.888 250 331.75 250C331.612 250 331.5 249.888 331.5 249.75V0.249997Z" fill="url(#paint13_radial_185_63)"/>
<path d="M356 0.249997C356 0.111926 356.112 0 356.25 0C356.388 0 356.5 0.111929 356.5 0.25V249.75C356.5 249.888 356.388 250 356.25 250C356.112 250 356 249.888 356 249.75V0.249997Z" fill="url(#paint14_radial_185_63)"/>
<path d="M380.5 0.249997C380.5 0.111926 380.612 0 380.75 0C380.888 0 381 0.111929 381 0.25V249.75C381 249.888 380.888 250 380.75 250C380.612 250 380.5 249.888 380.5 249.75V0.249997Z" fill="url(#paint15_radial_185_63)"/>
<path d="M405 0.249997C405 0.111926 405.112 0 405.25 0C405.388 0 405.5 0.111929 405.5 0.25V249.75C405.5 249.888 405.388 250 405.25 250C405.112 250 405 249.888 405 249.75V0.249997Z" fill="url(#paint16_radial_185_63)"/>
<path d="M429.5 0.249997C429.5 0.111926 429.612 0 429.75 0C429.888 0 430 0.111929 430 0.25V249.75C430 249.888 429.888 250 429.75 250C429.612 250 429.5 249.888 429.5 249.75V0.249997Z" fill="url(#paint17_radial_185_63)"/>
<path d="M454 0.249997C454 0.111926 454.112 0 454.25 0C454.388 0 454.5 0.111929 454.5 0.25V249.75C454.5 249.888 454.388 250 454.25 250C454.112 250 454 249.888 454 249.75V0.249997Z" fill="url(#paint18_radial_185_63)"/>
<path d="M0 18H468V18.5H0V18Z" fill="url(#paint19_radial_185_63)"/>
<path d="M0 40H468V40.5H0V40Z" fill="url(#paint20_radial_185_63)"/>
<path d="M0 62H468V62.5H0V62Z" fill="url(#paint21_radial_185_63)"/>
<path d="M0 84H468V84.5H0V84Z" fill="url(#paint22_radial_185_63)"/>
<path d="M0 106H468V106.5H0V106Z" fill="url(#paint23_radial_185_63)"/>
<path d="M0 128H468V128.5H0V128Z" fill="url(#paint24_radial_185_63)"/>
<path d="M0 150H468V150.5H0V150Z" fill="url(#paint25_radial_185_63)"/>
<path d="M0 172H468V172.5H0V172Z" fill="url(#paint26_radial_185_63)"/>
<path d="M0 194H468V194.5H0V194Z" fill="url(#paint27_radial_185_63)"/>
<path d="M0 216H468V216.5H0V216Z" fill="url(#paint28_radial_185_63)"/>
<path d="M0 238H468V238.5H0V238Z" fill="url(#paint29_radial_185_63)"/>
<defs>
<radialGradient id="paint0_radial_185_63" cx="0" cy="0" r="1" gradientUnits="userSpaceOnUse" gradientTransform="translate(234 125) rotate(90) scale(125 125)">
<stop stopColor="white" stopOpacity="0.25"/>
<stop offset="1" stopColor="#737373" stopOpacity="0.2"/>
</radialGradient>
<radialGradient id="paint1_radial_185_63" cx="0" cy="0" r="1" gradientUnits="userSpaceOnUse" gradientTransform="translate(234 125) rotate(90) scale(125 125)">
<stop stopColor="white" stopOpacity="0.25"/>
<stop offset="1" stopColor="#737373" stopOpacity="0.2"/>
</radialGradient>
<radialGradient id="paint2_radial_185_63" cx="0" cy="0" r="1" gradientUnits="userSpaceOnUse" gradientTransform="translate(234 125) rotate(90) scale(125 125)">
<stop stopColor="white" stopOpacity="0.25"/>
<stop offset="1" stopColor="#737373" stopOpacity="0.2"/>
</radialGradient>
<radialGradient id="paint3_radial_185_63" cx="0" cy="0" r="1" gradientUnits="userSpaceOnUse" gradientTransform="translate(234 125) rotate(90) scale(125 125)">
<stop stopColor="white" stopOpacity="0.25"/>
<stop offset="1" stopColor="#737373" stopOpacity="0.2"/>
</radialGradient>
<radialGradient id="paint4_radial_185_63" cx="0" cy="0" r="1" gradientUnits="userSpaceOnUse" gradientTransform="translate(234 125) rotate(90) scale(125 125)">
<stop stopColor="white" stopOpacity="0.25"/>
<stop offset="1" stopColor="#737373" stopOpacity="0.2"/>
</radialGradient>
<radialGradient id="paint5_radial_185_63" cx="0" cy="0" r="1" gradientUnits="userSpaceOnUse" gradientTransform="translate(234 125) rotate(90) scale(125 125)">
<stop stopColor="white" stopOpacity="0.25"/>
<stop offset="1" stopColor="#737373" stopOpacity="0.2"/>
</radialGradient>
<radialGradient id="paint6_radial_185_63" cx="0" cy="0" r="1" gradientUnits="userSpaceOnUse" gradientTransform="translate(234 125) rotate(90) scale(125 125)">
<stop stopColor="white" stopOpacity="0.25"/>
<stop offset="1" stopColor="#737373" stopOpacity="0.2"/>
</radialGradient>
<radialGradient id="paint7_radial_185_63" cx="0" cy="0" r="1" gradientUnits="userSpaceOnUse" gradientTransform="translate(234 125) rotate(90) scale(125 125)">
<stop stopColor="white" stopOpacity="0.25"/>
<stop offset="1" stopColor="#737373" stopOpacity="0.2"/>
</radialGradient>
<radialGradient id="paint8_radial_185_63" cx="0" cy="0" r="1" gradientUnits="userSpaceOnUse" gradientTransform="translate(234 125) rotate(90) scale(125 125)">
<stop stopColor="white" stopOpacity="0.25"/>
<stop offset="1" stopColor="#737373" stopOpacity="0.2"/>
</radialGradient>
<radialGradient id="paint9_radial_185_63" cx="0" cy="0" r="1" gradientUnits="userSpaceOnUse" gradientTransform="translate(234 125) rotate(90) scale(125 125)">
<stop stopColor="white" stopOpacity="0.25"/>
<stop offset="1" stopColor="#737373" stopOpacity="0.2"/>
</radialGradient>
<radialGradient id="paint10_radial_185_63" cx="0" cy="0" r="1" gradientUnits="userSpaceOnUse" gradientTransform="translate(234 125) rotate(90) scale(125 125)">
<stop stopColor="white" stopOpacity="0.25"/>
<stop offset="1" stopColor="#737373" stopOpacity="0.2"/>
</radialGradient>
<radialGradient id="paint11_radial_185_63" cx="0" cy="0" r="1" gradientUnits="userSpaceOnUse" gradientTransform="translate(234 125) rotate(90) scale(125 125)">
<stop stopColor="white" stopOpacity="0.25"/>
<stop offset="1" stopColor="#737373" stopOpacity="0.2"/>
</radialGradient>
<radialGradient id="paint12_radial_185_63" cx="0" cy="0" r="1" gradientUnits="userSpaceOnUse" gradientTransform="translate(234 125) rotate(90) scale(125 125)">
<stop stopColor="white" stopOpacity="0.25"/>
<stop offset="1" stopColor="#737373" stopOpacity="0.2"/>
</radialGradient>
<radialGradient id="paint13_radial_185_63" cx="0" cy="0" r="1" gradientUnits="userSpaceOnUse" gradientTransform="translate(234 125) rotate(90) scale(125 125)">
<stop stopColor="white" stopOpacity="0.25"/>
<stop offset="1" stopColor="#737373" stopOpacity="0.2"/>
</radialGradient>
<radialGradient id="paint14_radial_185_63" cx="0" cy="0" r="1" gradientUnits="userSpaceOnUse" gradientTransform="translate(234 125) rotate(90) scale(125 125)">
<stop stopColor="white" stopOpacity="0.25"/>
<stop offset="1" stopColor="#737373" stopOpacity="0.2"/>
</radialGradient>
<radialGradient id="paint15_radial_185_63" cx="0" cy="0" r="1" gradientUnits="userSpaceOnUse" gradientTransform="translate(234 125) rotate(90) scale(125 125)">
<stop stopColor="white" stopOpacity="0.25"/>
<stop offset="1" stopColor="#737373" stopOpacity="0.2"/>
</radialGradient>
<radialGradient id="paint16_radial_185_63" cx="0" cy="0" r="1" gradientUnits="userSpaceOnUse" gradientTransform="translate(234 125) rotate(90) scale(125 125)">
<stop stopColor="white" stopOpacity="0.25"/>
<stop offset="1" stopColor="#737373" stopOpacity="0.2"/>
</radialGradient>
<radialGradient id="paint17_radial_185_63" cx="0" cy="0" r="1" gradientUnits="userSpaceOnUse" gradientTransform="translate(234 125) rotate(90) scale(125 125)">
<stop stopColor="white" stopOpacity="0.25"/>
<stop offset="1" stopColor="#737373" stopOpacity="0.2"/>
</radialGradient>
<radialGradient id="paint18_radial_185_63" cx="0" cy="0" r="1" gradientUnits="userSpaceOnUse" gradientTransform="translate(234 125) rotate(90) scale(125 125)">
<stop stopColor="white" stopOpacity="0.25"/>
<stop offset="1" stopColor="#737373" stopOpacity="0.2"/>
</radialGradient>
<radialGradient id="paint19_radial_185_63" cx="0" cy="0" r="1" gradientUnits="userSpaceOnUse" gradientTransform="translate(234 125) rotate(90) scale(125 125)">
<stop stopColor="white" stopOpacity="0.25"/>
<stop offset="1" stopColor="#737373" stopOpacity="0.2"/>
</radialGradient>
<radialGradient id="paint20_radial_185_63" cx="0" cy="0" r="1" gradientUnits="userSpaceOnUse" gradientTransform="translate(234 125) rotate(90) scale(125 125)">
<stop stopColor="white" stopOpacity="0.25"/>
<stop offset="1" stopColor="#737373" stopOpacity="0.2"/>
</radialGradient>
<radialGradient id="paint21_radial_185_63" cx="0" cy="0" r="1" gradientUnits="userSpaceOnUse" gradientTransform="translate(234 125) rotate(90) scale(125 125)">
<stop stopColor="white" stopOpacity="0.25"/>
<stop offset="1" stopColor="#737373" stopOpacity="0.2"/>
</radialGradient>
<radialGradient id="paint22_radial_185_63" cx="0" cy="0" r="1" gradientUnits="userSpaceOnUse" gradientTransform="translate(234 125) rotate(90) scale(125 125)">
<stop stopColor="white" stopOpacity="0.25"/>
<stop offset="1" stopColor="#737373" stopOpacity="0.2"/>
</radialGradient>
<radialGradient id="paint23_radial_185_63" cx="0" cy="0" r="1" gradientUnits="userSpaceOnUse" gradientTransform="translate(234 125) rotate(90) scale(125 125)">
<stop stopColor="white" stopOpacity="0.25"/>
<stop offset="1" stopColor="#737373" stopOpacity="0.2"/>
</radialGradient>
<radialGradient id="paint24_radial_185_63" cx="0" cy="0" r="1" gradientUnits="userSpaceOnUse" gradientTransform="translate(234 125) rotate(90) scale(125 125)">
<stop stopColor="white" stopOpacity="0.25"/>
<stop offset="1" stopColor="#737373" stopOpacity="0.2"/>
</radialGradient>
<radialGradient id="paint25_radial_185_63" cx="0" cy="0" r="1" gradientUnits="userSpaceOnUse" gradientTransform="translate(234 125) rotate(90) scale(125 125)">
<stop stopColor="white" stopOpacity="0.25"/>
<stop offset="1" stopColor="#737373" stopOpacity="0.2"/>
</radialGradient>
<radialGradient id="paint26_radial_185_63" cx="0" cy="0" r="1" gradientUnits="userSpaceOnUse" gradientTransform="translate(234 125) rotate(90) scale(125 125)">
<stop stopColor="white" stopOpacity="0.25"/>
<stop offset="1" stopColor="#737373" stopOpacity="0.2"/>
</radialGradient>
<radialGradient id="paint27_radial_185_63" cx="0" cy="0" r="1" gradientUnits="userSpaceOnUse" gradientTransform="translate(234 125) rotate(90) scale(125 125)">
<stop stopColor="white" stopOpacity="0.25"/>
<stop offset="1" stopColor="#737373" stopOpacity="0.2"/>
</radialGradient>
<radialGradient id="paint28_radial_185_63" cx="0" cy="0" r="1" gradientUnits="userSpaceOnUse" gradientTransform="translate(234 125) rotate(90) scale(125 125)">
<stop stopColor="white" stopOpacity="0.25"/>
<stop offset="1" stopColor="#737373" stopOpacity="0.2"/>
</radialGradient>
<radialGradient id="paint29_radial_185_63" cx="0" cy="0" r="1" gradientUnits="userSpaceOnUse" gradientTransform="translate(234 125) rotate(90) scale(125 125)">
<stop stopColor="white" stopOpacity="0.25"/>
<stop offset="1" stopColor="#737373" stopOpacity="0.2"/>
</radialGradient>
</defs>
</svg>
