<svg width="23" height="23" viewBox="0 0 23 23" fill="none" xmlns="http://www.w3.org/2000/svg">
<path d="M7.21764 0.783783H16.3197C19.7872 0.783783 22.6045 3.56649 22.6045 6.99135V15.9816C22.6045 17.628 21.9424 19.2069 20.7637 20.371C19.5851 21.5352 17.9866 22.1892 16.3197 22.1892H7.21764C3.75017 22.1892 0.932861 19.4065 0.932861 15.9816V6.99135C0.932861 5.345 1.59501 3.76608 2.77363 2.60194C3.95225 1.43779 5.55081 0.783783 7.21764 0.783783ZM7.00092 2.92432C5.96634 2.92432 4.97413 3.33026 4.24257 4.05283C3.51101 4.77541 3.10003 5.75542 3.10003 6.7773V16.1957C3.10003 18.3255 4.84459 20.0486 7.00092 20.0486H16.5364C17.571 20.0486 18.5632 19.6427 19.2948 18.9201C20.0264 18.1976 20.4373 17.2175 20.4373 16.1957V6.7773C20.4373 4.64746 18.6928 2.92432 16.5364 2.92432H7.00092ZM17.4575 4.52973C17.8167 4.52973 18.1612 4.67068 18.4152 4.92157C18.6693 5.17247 18.812 5.51275 18.812 5.86757C18.812 6.22238 18.6693 6.56267 18.4152 6.81356C18.1612 7.06445 17.8167 7.2054 17.4575 7.2054C17.0983 7.2054 16.7537 7.06445 16.4997 6.81356C16.2457 6.56267 16.103 6.22238 16.103 5.86757C16.103 5.51275 16.2457 5.17247 16.4997 4.92157C16.7537 4.67068 17.0983 4.52973 17.4575 4.52973ZM11.7687 6.13513C13.2056 6.13513 14.5837 6.69894 15.5997 7.70251C16.6158 8.70608 17.1866 10.0672 17.1866 11.4865C17.1866 12.9058 16.6158 14.2669 15.5997 15.2705C14.5837 16.274 13.2056 16.8378 11.7687 16.8378C10.3318 16.8378 8.9537 16.274 7.93764 15.2705C6.92159 14.2669 6.35077 12.9058 6.35077 11.4865C6.35077 10.0672 6.92159 8.70608 7.93764 7.70251C8.9537 6.69894 10.3318 6.13513 11.7687 6.13513ZM11.7687 8.27567C10.9065 8.27567 10.0797 8.61396 9.47006 9.2161C8.86042 9.81824 8.51794 10.6349 8.51794 11.4865C8.51794 12.338 8.86042 13.1547 9.47006 13.7569C10.0797 14.359 10.9065 14.6973 11.7687 14.6973C12.6308 14.6973 13.4577 14.359 14.0673 13.7569C14.6769 13.1547 15.0194 12.338 15.0194 11.4865C15.0194 10.6349 14.6769 9.81824 14.0673 9.2161C13.4577 8.61396 12.6308 8.27567 11.7687 8.27567Z" fill="url(#paint0_linear_2_61)"/>
<defs>
<linearGradient id="paint0_linear_2_61" x1="11.7687" y1="0.783783" x2="11.7687" y2="22.1892" gradientUnits="userSpaceOnUse">
<stop stop-color="white"/>
<stop offset="1" stop-color="#2B2B2B"/>
</linearGradient>
</defs>
</svg>
