<svg width="77" height="19" viewBox="0 0 77 19" fill="none" xmlns="http://www.w3.org/2000/svg">
<path d="M30.8941 11.1285L35.0878 16.2857H31.7763L28.0441 11.5493V16.2857H25.3298V2.71433H28.0441V10.6943L31.4913 6.78567H34.952L30.8941 11.1285ZM20.037 6.51433C19.4427 6.52327 18.8594 6.67608 18.3371 6.9597C17.8148 7.24331 17.3689 7.64927 17.0378 8.14284V6.78567H14.4728V16.2857H17.187V11.8478C17.1514 11.5257 17.1824 11.1997 17.2782 10.8901C17.374 10.5805 17.5325 10.294 17.7438 10.0483C17.9551 9.80259 18.2148 9.60302 18.5065 9.46198C18.7983 9.32095 19.116 9.24148 19.4398 9.22851C21.0141 9.22851 21.2585 10.7757 21.2585 11.8478V16.2857H23.9728V11.2507C23.9728 8.265 22.982 6.51433 20.0913 6.51433H20.037ZM44.3298 11.7528C44.3402 11.9518 44.3402 12.1509 44.3298 12.35H37.2048V12.445C37.3205 13.0109 37.634 13.5171 38.0892 13.8728C38.5444 14.2285 39.1114 14.4103 39.6885 14.3857C40.1463 14.4056 40.6034 14.3329 41.0325 14.172C41.4616 14.0111 41.8538 13.7653 42.1856 13.4493L43.9906 14.8065C43.4186 15.3903 42.7305 15.8478 41.9708 16.1493C41.211 16.4508 40.3965 16.5898 39.5798 16.5572C38.9035 16.5999 38.2258 16.497 37.5926 16.2554C36.9594 16.0137 36.3855 15.6391 35.9095 15.1567C35.4335 14.6742 35.0666 14.0953 34.8335 13.4589C34.6005 12.8225 34.5067 12.1436 34.5585 11.4678C34.5445 10.8008 34.6682 10.138 34.9217 9.52078C35.1751 8.90358 35.553 8.34521 36.0318 7.88047C36.5105 7.41573 37.0799 7.05459 37.7043 6.81955C38.3288 6.58451 38.9949 6.48061 39.6613 6.51433C42.2128 6.51433 44.3298 8.31933 44.3298 11.7528ZM41.8056 10.5857C41.7956 10.3169 41.731 10.0529 41.6157 9.80987C41.5004 9.56685 41.3368 9.34984 41.1349 9.17207C40.933 8.99431 40.6971 8.85951 40.4414 8.77589C40.1857 8.69226 39.9157 8.66157 39.6478 8.68567C38.4544 8.55668 37.3736 9.39728 37.2048 10.5857H41.8056ZM3.61563 2.71433H0.901306V16.2857H9.04414V13.5716H3.61563V2.71433ZM52.4728 2.71433H55.187V16.2857H52.622V15.3357C52.2963 15.7369 51.8811 16.0564 51.4098 16.2685C50.9385 16.4806 50.4241 16.5795 49.9078 16.5572C49.277 16.541 48.6561 16.3959 48.0834 16.131C47.5107 15.866 46.9982 15.4867 46.5775 15.0164C46.1567 14.5461 45.8366 13.9947 45.6368 13.3961C45.437 12.7975 45.3617 12.1644 45.4156 11.5357C45.3516 10.906 45.4192 10.27 45.6144 9.66793C45.8095 9.06589 46.1278 8.51106 46.5491 8.03875C46.9703 7.56644 47.4853 7.18698 48.0612 6.92453C48.6371 6.66208 49.2613 6.52239 49.8941 6.51433C50.3655 6.49364 50.8363 6.56699 51.279 6.73009C51.7217 6.89319 52.1275 7.14279 52.4728 7.46433V2.71433ZM52.6763 11.5357C52.719 11.2223 52.694 10.9034 52.6029 10.6005C52.5119 10.2976 52.357 10.0178 52.1487 9.77981C51.9403 9.54186 51.6833 9.35136 51.3951 9.22116C51.1069 9.09095 50.7941 9.02406 50.4778 9.025C49.1794 9.11926 48.1956 10.2358 48.2656 11.5357C48.1956 12.8355 49.1794 13.9522 50.4778 14.0465C50.7941 14.0474 51.1069 13.9805 51.3951 13.8503C51.6834 13.7201 51.9404 13.5296 52.1487 13.2916C52.3571 13.0537 52.512 12.7738 52.603 12.4709C52.694 12.168 52.719 11.8491 52.6763 11.5357ZM11.7585 2.44284C11.322 2.44899 10.9041 2.62055 10.5892 2.92288C10.2743 3.22521 10.0859 3.63577 10.062 4.07164C10.062 5.00843 10.8215 5.76798 11.7585 5.76798C12.6954 5.76798 13.4547 5.00828 13.4547 4.07164C13.4307 3.63582 13.2423 3.22531 12.9274 2.92302C12.6126 2.62073 12.1948 2.44917 11.7583 2.44298M10.4013 16.2857H13.1156V6.78567H10.4013V16.2857ZM76.9013 1.35716V17.6428C76.9013 18.0028 76.7583 18.348 76.5038 18.6025C76.2493 18.857 75.9041 19 75.5441 19H59.2585C58.8985 19 58.5533 18.857 58.2988 18.6025C58.0443 18.348 57.9013 18.0028 57.9013 17.6428V1.35716C57.9013 0.997222 58.0443 0.652022 58.2988 0.397504C58.5533 0.142987 58.8985 0 59.2585 0L75.5441 0C75.9041 0 76.2493 0.142987 76.5038 0.397504C76.7583 0.652022 76.9013 0.997222 76.9013 1.35716ZM63.3298 6.78567H60.6156V16.2857H63.3298V6.78567ZM63.6691 4.07149C63.6691 3.13455 62.9096 2.375 61.9728 2.375C61.036 2.375 60.2763 3.13455 60.2763 4.07149C60.2763 5.00828 61.0359 5.76784 61.9728 5.76784C62.9096 5.76784 63.6691 5.00828 63.6691 4.07149ZM74.187 11.2507C74.187 8.265 73.1963 6.51433 70.3056 6.51433C69.7021 6.51442 69.1079 6.66302 68.5753 6.94702C68.0428 7.23102 67.5883 7.6417 67.252 8.14284V6.78567H64.687V16.2857H67.4013V11.8478C67.3657 11.5257 67.3967 11.1997 67.4925 10.8901C67.5883 10.5805 67.7468 10.294 67.9582 10.0483C68.1695 9.80259 68.4291 9.60302 68.7209 9.46198C69.0126 9.32095 69.3303 9.24148 69.6541 9.22851C71.2285 9.22851 71.4728 10.7757 71.4728 11.8478V16.2857H74.187V11.2507Z" fill="#666666"/>
</svg>
