<svg width="10" height="15" viewBox="0 0 10 15" fill="none" xmlns="http://www.w3.org/2000/svg">
<path d="M0 0L2.37 5.75556C0.95 6.63778 0 8.20778 0 10C0 12.7567 2.24278 15 5 15C7.75722 15 10 12.7567 10 10C10 8.20833 9.05 6.63833 7.63 5.75556L10 0H8.79889L6.62556 5.27667C6.25526 5.14821 5.87114 5.06374 5.48111 5.025L7.54833 0H6.34722L4.26278 5.06111C3.96052 5.10565 3.66298 5.17781 3.37389 5.27667L1.20111 0H0ZM2.45111 0L3.86278 3.43L4.46389 1.97056L3.65278 0H2.45111ZM5 6.11111C7.14389 6.11111 8.88889 7.85556 8.88889 10C8.88889 12.1444 7.14389 13.8889 5 13.8889C2.85611 13.8889 1.11111 12.1444 1.11111 10C1.11111 7.85556 2.85611 6.11111 5 6.11111ZM5 7.86778L4.35111 9.32333L2.77778 9.49555L3.95556 10.5533L3.62389 12.1144L5 11.3211L6.37611 12.1156L6.045 10.5544L7.22222 9.495L5.64889 9.32278L5 7.86778Z" fill="#696967"/>
</svg>
