<svg width="77" height="15" viewBox="0 0 77 15" fill="none" xmlns="http://www.w3.org/2000/svg">
<path d="M47.3333 3.01505V12.491H50.0074V3.01505H47.3333ZM26.2935 2.99902V12.483H28.9918V5.11901L31.0957 5.12702C31.7864 5.12702 32.2682 5.29565 32.5975 5.64908C33.023 6.09885 33.1916 6.82946 33.1916 8.15456V12.483H35.8096V7.24701C35.8096 3.5049 33.4245 2.99902 31.0957 2.99902H26.2935ZM51.6456 3.01505V12.491H55.982C58.2947 12.491 59.0496 12.1055 59.8607 11.2462C60.439 10.644 60.8083 9.31089 60.8083 7.85739C60.8083 6.52442 60.4951 5.33588 59.941 4.5971C58.9613 3.272 57.5318 3.01505 55.3958 3.01505H51.6456ZM54.2956 5.07092H55.4439C57.1143 5.07092 58.1905 5.81756 58.1905 7.76105C58.1905 9.70454 57.1143 10.4592 55.4439 10.4592H54.2956V5.07092ZM43.4787 3.01505L41.2462 10.5235L39.1102 3.01505H36.219L39.2706 12.491H43.1251L46.2089 3.01505H43.4787ZM62.0611 12.491H64.7352V3.01505H62.0611V12.491ZM69.5615 3.01505L65.8273 12.483H68.4613L69.0556 10.8046H73.4723L74.0344 12.4748H76.9013L73.135 3.01491L69.5615 3.01505ZM71.296 4.74153L72.9183 9.17432H69.6258L71.296 4.74153Z" fill="#666666"/>
<path d="M9.03613 4.58891V3.28801C9.16468 3.27999 9.29308 3.27197 9.42162 3.27197C12.9871 3.15961 15.3239 6.33959 15.3239 6.33959C15.3239 6.33959 12.8024 9.84108 10.0961 9.84108C9.73483 9.84108 9.3814 9.78482 9.04415 9.67245V5.72134C10.4335 5.88997 10.7145 6.50019 11.5416 7.88942L13.3968 6.33157C13.3968 6.33157 12.0396 4.55685 9.75902 4.55685C9.51811 4.54883 9.27704 4.56487 9.03613 4.58891ZM9.03628 0.284668V2.22801L9.42177 2.20397C14.3766 2.03534 17.6129 6.2673 17.6129 6.2673C17.6129 6.2673 13.9025 10.7804 10.04 10.7804C9.70262 10.7804 9.37353 10.7483 9.04415 10.6921V11.8966C9.31727 11.9289 9.59826 11.9529 9.87124 11.9529C13.4689 11.9529 16.0707 10.1139 18.5924 7.94568C19.0099 8.28293 20.7204 9.09399 21.0738 9.44742C18.6807 11.455 13.0996 13.0692 9.93551 13.0692C9.64044 13.0696 9.34557 13.0535 9.05231 13.0209V14.7153H22.72V0.284668L9.03628 0.284668ZM9.03628 9.67231V10.7001C5.71172 10.1059 4.78814 6.64477 4.78814 6.64477C4.78814 6.64477 6.38607 4.87807 9.03613 4.58891L9.03628 5.71318H9.02826C7.63889 5.54455 6.54683 6.84546 6.54683 6.84546C6.54683 6.84546 7.16522 9.03788 9.03628 9.67231ZM3.13381 6.50019C3.13381 6.50019 5.1012 3.59319 9.04415 3.28801V2.22816C4.67563 2.58129 0.901306 6.27516 0.901306 6.27516C0.901306 6.27516 3.03732 12.4586 9.03613 13.0208V11.8965C4.6354 11.3507 3.13381 6.50019 3.13381 6.50019Z" fill="#666666"/>
</svg>
