<svg width="25" height="19" viewBox="0 0 25 19" fill="none" xmlns="http://www.w3.org/2000/svg">
<path d="M1.06957 0.0948243C0.384025 0.337402 -0.0483974 0.980762 0.00433699 1.67686C0.0570714 2.23584 0.384024 2.73154 0.890274 2.97412L1.13285 3.10068L4.70824 3.11123L8.29418 3.13232L11.1313 10.2515C12.6922 14.1644 14.0317 17.4655 14.1161 17.6026C14.4114 18.0667 15.0969 18.5413 15.6664 18.6573C15.8563 18.6995 16.9954 18.7101 19.8536 18.6995L23.7664 18.689L24.009 18.5624C24.3254 18.4147 24.6102 18.1194 24.7684 17.803C24.8633 17.6026 24.895 17.4866 24.895 17.1491C24.895 16.8116 24.8739 16.6956 24.7684 16.4952C24.6207 16.1788 24.3254 15.894 24.009 15.7358L23.7664 15.6093L20.1911 15.5987L16.6157 15.5882L13.7786 8.46904C12.0383 4.13428 10.8676 1.25498 10.7621 1.09678C10.4668 0.653809 9.97113 0.295215 9.39106 0.115918C9.09574 0.0209963 8.94809 0.0209961 5.18285 0.0209961C1.76566 0.0209961 1.25942 0.031543 1.06957 0.0948243Z" fill="url(#paint0_linear_121_208)"/>
<path d="M15.0864 0.094922C14.4009 0.3375 13.9684 0.98086 14.0212 1.67695C14.0739 2.23594 14.4009 2.73164 14.9071 2.97422L15.1497 3.10078H19.4528H23.7559L23.9985 2.97422C24.3149 2.82656 24.5997 2.53125 24.7579 2.21484C24.9267 1.8668 24.9267 1.25508 24.7579 0.896484C24.6102 0.580078 24.3149 0.295312 23.9985 0.137109L23.7559 0.0105471L19.5267 0C15.7825 0.0210938 15.2763 0.0316408 15.0864 0.094922Z" fill="url(#paint1_linear_121_208)"/>
<defs>
<linearGradient id="paint0_linear_121_208" x1="24.5" y1="-0.478439" x2="10.0198" y2="17.5172" gradientUnits="userSpaceOnUse">
<stop stopColor="white"/>
<stop offset="1" stopColor="#999999"/>
</linearGradient>
<linearGradient id="paint1_linear_121_208" x1="24.712" y1="-0.0828932" x2="23.3355" y2="4.41663" gradientUnits="userSpaceOnUse">
<stop stopColor="white"/>
<stop offset="1" stopColor="#999999"/>
</linearGradient>
</defs>
</svg>
