<svg width="15" height="10" viewBox="0 0 15 10" fill="none" xmlns="http://www.w3.org/2000/svg">
<path d="M10.2071 0.305288C10.1149 0.209778 10.0046 0.133596 9.88255 0.0811869C9.76054 0.0287779 9.62932 0.00119157 9.49654 3.7757e-05C9.36376 -0.00111606 9.23208 0.0241854 9.10918 0.0744663C8.98628 0.124747 8.87463 0.199 8.78073 0.292893C8.68684 0.386786 8.61258 0.498438 8.5623 0.621334C8.51202 0.74423 8.48672 0.87591 8.48787 1.00869C8.48902 1.14147 8.51661 1.27269 8.56902 1.39469C8.62143 1.5167 8.69761 1.62704 8.79313 1.71929L11.0862 4.01229H1.50002C1.23479 4.01229 0.980437 4.11764 0.792898 4.30518C0.605359 4.49272 0.5 4.74707 0.5 5.01229C0.5 5.2775 0.605359 5.53186 0.792898 5.71939C0.980437 5.90693 1.23479 6.01229 1.50002 6.01229H11.0862L8.79313 8.30529C8.61097 8.49389 8.51017 8.74649 8.51245 9.00869C8.51473 9.27088 8.6199 9.5217 8.80531 9.70711C8.99072 9.89251 9.24154 9.99768 9.50374 9.99996C9.76594 10.0022 10.0185 9.90145 10.2071 9.71929L14.2072 5.71929C14.3947 5.53176 14.5 5.27745 14.5 5.01229C14.5 4.74712 14.3947 4.49282 14.2072 4.30529L10.2071 0.305288Z" fill="white"/>
</svg>
