<svg width="102" height="29" viewBox="0 0 102 29" fill="none" xmlns="http://www.w3.org/2000/svg">
<path d="M21.8393 5.51431C21.8227 5.36483 21.69 5.29839 21.5904 5.29839C21.4908 5.29839 19.3168 5.1323 19.3168 5.1323C19.3168 5.1323 17.8067 3.62084 17.6241 3.47136C17.4582 3.30527 17.1429 3.35509 17.0101 3.38831C16.9935 3.38831 16.6782 3.48797 16.1637 3.65406C15.6493 2.17583 14.7697 0.830469 13.1932 0.830469H13.0438C12.6124 0.26575 12.0481 0 11.5835 0C7.93251 0 6.17342 4.56758 5.62578 6.89289C4.19859 7.34135 3.18628 7.64031 3.07012 7.69014C2.27354 7.93928 2.25695 7.95589 2.15738 8.70331C2.0744 9.26803 0 25.3293 0 25.3293L16.1471 28.3522L24.9094 26.4587C24.926 26.4255 21.8559 5.66379 21.8393 5.51431ZM15.2676 3.88659C14.8693 4.00286 14.3881 4.15234 13.9068 4.31844V4.01947C13.9068 3.12256 13.7906 2.39175 13.5749 1.81042C14.4046 1.91008 14.9191 2.82359 15.2676 3.88659ZM12.5626 1.99313C12.7783 2.55784 12.9277 3.35509 12.9277 4.45131V4.61741C12.0315 4.89976 11.0856 5.18212 10.1065 5.4977C10.6541 3.40492 11.6996 2.37514 12.5626 1.99313ZM11.5005 0.963342C11.6664 0.963342 11.8324 1.02978 11.9652 1.12944C10.7869 1.67755 9.54225 3.05612 9.0278 5.8465C8.24782 6.09564 7.50104 6.31156 6.78744 6.54409C7.38487 4.41809 8.87844 0.963342 11.5005 0.963342Z" fill="#666666"/>
<path d="M21.5904 5.26519C21.4908 5.26519 19.3168 5.0991 19.3168 5.0991C19.3168 5.0991 17.8067 3.58764 17.6241 3.43816C17.5577 3.37172 17.4748 3.3385 17.4084 3.3385L16.1969 28.3522L24.9592 26.4588C24.9592 26.4588 21.8891 5.66382 21.8725 5.51433C21.8061 5.36485 21.6899 5.29841 21.5904 5.26519Z" fill="#787878"/>
<path d="M13.1932 10.1152L12.1311 13.3208C12.1311 13.3208 11.1686 12.8059 10.0235 12.8059C8.31421 12.8059 8.23124 13.8855 8.23124 14.1512C8.23124 15.6129 12.0481 16.1776 12.0481 19.6157C12.0481 22.3231 10.3388 24.067 8.03209 24.067C5.2441 24.067 3.8501 22.3397 3.8501 22.3397L4.59688 19.8815C4.59688 19.8815 6.05726 21.1438 7.28531 21.1438C8.09847 21.1438 8.43038 20.5126 8.43038 20.0476C8.43038 18.1375 5.31048 18.0544 5.31048 14.8987C5.31048 12.2578 7.20233 9.69993 11.0358 9.69993C12.463 9.68332 13.1932 10.1152 13.1932 10.1152Z" fill="#ACACAC"/>
<path d="M35.1321 16.1445C34.2525 15.6794 33.8045 15.2642 33.8045 14.7161C33.8045 14.0185 34.4351 13.57 35.4142 13.57C36.5593 13.57 37.5716 14.0351 37.5716 14.0351L38.3681 11.5935C38.3681 11.5935 37.638 11.0288 35.4806 11.0288C32.4768 11.0288 30.3858 12.7562 30.3858 15.1811C30.3858 16.5597 31.365 17.6061 32.6594 18.3535C33.7215 18.9348 34.0866 19.3667 34.0866 19.9978C34.0866 20.6456 33.5555 21.1771 32.5764 21.1771C31.1326 21.1771 29.7552 20.4297 29.7552 20.4297L28.9089 22.8713C28.9089 22.8713 30.1701 23.7183 32.2943 23.7183C35.381 23.7183 37.6214 22.1903 37.6214 19.4497C37.5882 17.9549 36.4763 16.9251 35.1321 16.1445ZM47.4457 10.9956C45.919 10.9956 44.7241 11.7264 43.8114 12.8226L43.7782 12.806L45.1058 5.89648H41.6706L38.3184 23.5024H41.7536L42.8986 17.4898C43.3467 15.2143 44.525 13.8025 45.6203 13.8025C46.4002 13.8025 46.6989 14.334 46.6989 15.0815C46.6989 15.5465 46.6658 16.1445 46.5496 16.6095L45.2552 23.5024H48.6904L50.0346 16.3936C50.1839 15.6462 50.2835 14.7493 50.2835 14.1347C50.2669 12.1582 49.2546 10.9956 47.4457 10.9956ZM58.0501 10.9956C53.9013 10.9956 51.1631 14.7327 51.1631 18.9016C51.1631 21.5591 52.806 23.7183 55.8927 23.7183C59.9585 23.7183 62.6967 20.0809 62.6967 15.8123C62.7133 13.3375 61.2861 10.9956 58.0501 10.9956ZM56.3574 21.0941C55.1791 21.0941 54.6978 20.0975 54.6978 18.8352C54.6978 16.8587 55.7102 13.6531 57.5854 13.6531C58.7969 13.6531 59.2117 14.7161 59.2117 15.7292C59.2117 17.8386 58.1662 21.0941 56.3574 21.0941ZM71.5088 10.9956C69.1855 10.9956 67.8744 13.0551 67.8744 13.0551H67.8413L68.0404 11.2115H64.9869C64.8375 12.4572 64.5554 14.3673 64.2899 15.7791L61.9168 28.3856H65.352L66.3145 23.2865H66.3975C66.3975 23.2865 67.1111 23.735 68.4055 23.735C72.4547 23.735 75.0934 19.5826 75.0934 15.397C75.0768 13.0717 74.0313 10.9956 71.5088 10.9956ZM68.2229 21.1273C67.3268 21.1273 66.7958 20.6124 66.7958 20.6124L67.36 17.4068C67.7583 15.2476 68.8868 13.8358 70.0816 13.8358C71.1437 13.8358 71.459 14.8157 71.459 15.7292C71.4756 17.9549 70.148 21.1273 68.2229 21.1273ZM79.989 6.06257C78.8937 6.06257 78.0141 6.94287 78.0141 8.0557C78.0141 9.06887 78.6613 9.78307 79.6405 9.78307H79.6736C80.7523 9.78307 81.6651 9.05226 81.6817 7.78995C81.6983 6.77678 81.0179 6.06257 79.989 6.06257ZM75.1763 23.4858H78.6116L80.9349 11.2613H77.4831M89.6972 11.2447H87.3074L87.4236 10.68C87.6228 9.50071 88.3198 8.47093 89.4814 8.47093C90.0954 8.47093 90.5767 8.65363 90.5767 8.65363L91.2405 5.94631C91.2405 5.94631 90.6597 5.64734 89.3653 5.64734C88.1538 5.64734 86.9258 5.99613 85.9964 6.79339C84.8182 7.78995 84.2705 9.23496 84.005 10.6966L83.9054 11.2613H82.2957L81.7812 13.869H83.391L81.5655 23.5024H85.0007L86.8262 13.869H89.1993L89.6972 11.2447ZM97.9782 11.2613C97.9782 11.2613 95.8208 16.6926 94.8749 19.6657H94.8417C94.7753 18.7023 93.9953 11.2613 93.9953 11.2613H90.3776L92.452 22.456C92.4852 22.7052 92.4686 22.8547 92.369 23.0207C91.9707 23.8014 91.2903 24.5488 90.4937 25.0969C89.8465 25.562 89.1163 25.8776 88.5355 26.0769L89.498 29.0001C90.195 28.8506 91.6554 28.2693 92.8668 27.1233C94.4268 25.6616 95.8872 23.3862 97.3807 20.2968L101.579 11.2447H97.9782V11.2613Z" fill="#666666"/>
</svg>
