<svg width="88" height="21" viewBox="0 0 88 21" fill="none" xmlns="http://www.w3.org/2000/svg">
<path d="M78.5408 0C77.7433 0 77.1053 0.445498 77.1053 0.988788L77.5911 6.47965C77.6455 6.81287 78.0515 7.0664 78.5408 7.0664C79.0338 7.0664 79.4362 6.81287 79.4906 6.47965L79.9799 0.988788C79.9799 0.445498 79.3419 0 78.5408 0ZM0.901306 4.40428C0.901306 4.40428 3.06541 13.2672 3.40978 14.7087C3.81578 16.3857 4.54077 17.005 6.636 16.5885L7.98812 11.094C8.32886 9.72853 8.56086 8.75423 8.78198 7.3634H8.81823C8.97411 8.76871 9.19523 9.73215 9.47435 11.094L10.3081 14.9007C10.5908 16.2118 11.3775 17.0376 13.4256 16.5885L16.6518 4.40428H14.0491L12.9507 9.6742C12.6534 11.2063 12.3852 12.4015 12.1786 13.8032H12.1423C11.9538 12.416 11.7146 11.2679 11.4173 9.77199L10.2682 4.40428H7.56037L6.33513 9.63798C5.98713 11.228 5.66451 12.5102 5.45789 13.8648H5.42164C5.17818 12.3855 4.91232 10.91 4.62415 9.43877C4.62415 9.43877 3.89553 5.69731 3.63816 4.40428H0.901306ZM25.6888 4.40428V16.5885H28.1647V4.40428H25.6888ZM60.561 4.40428V13.3939C60.561 14.6326 60.793 15.4983 61.2896 16.0307C61.7246 16.4943 62.446 16.7913 63.3051 16.7913C64.0373 16.7913 64.7587 16.6537 65.0995 16.5269L65.0632 14.5964C64.7563 14.6734 64.4407 14.7099 64.1243 14.7051C63.2833 14.7051 63.0006 14.169 63.0006 13.0535V9.61625H65.1575V7.28734H63.0006V4.40428H60.561ZM70.6311 4.40428C70.2179 4.41514 69.7467 4.73025 69.4458 5.24819C69.047 5.93998 69.1159 6.71507 69.5835 6.98672L74.586 9.312C74.8977 9.42791 75.3219 9.20335 75.5684 8.7832C75.8149 8.35944 75.7967 7.87772 75.5357 7.66764L71.019 4.50207C70.9015 4.43377 70.7671 4.39988 70.6311 4.40428ZM86.4505 4.40428C86.3158 4.40056 86.1828 4.43443 86.0663 4.50207L81.5459 7.66764C81.2886 7.87772 81.2704 8.35581 81.5133 8.77958V8.7832C81.7598 9.20697 82.1839 9.42791 82.4957 9.312L87.4981 6.9831C87.9694 6.71507 88.0382 5.93998 87.6431 5.24819C87.3386 4.73025 86.8674 4.41514 86.4505 4.40428ZM20.1571 7.22939C18.6201 7.22939 17.3985 7.66402 16.7315 8.04433L17.2173 9.71042C17.8263 9.33011 18.7978 9.01138 19.7185 9.01138C21.2374 9.00776 21.4875 9.86978 21.4875 10.4239V10.5543C18.1706 10.5507 16.079 11.6952 16.079 14.0314C16.079 15.4584 17.1448 16.7949 18.9971 16.7949C20.139 16.7949 21.0924 16.3386 21.6651 15.6106H21.7195C21.7195 15.6106 22.1001 17.1933 24.1845 16.5885C24.0798 15.8568 24.0313 15.1182 24.0395 14.3791V11.1266C24.0395 9.05485 23.1513 7.22939 20.1571 7.22939ZM34.9687 7.22939C33.4173 7.22939 32.7213 8.01535 32.3008 8.67817H32.2645V7.43584H29.901V16.5885H32.3878V11.2208C32.3878 10.9672 32.4168 10.7028 32.5074 10.471C32.7104 9.93136 33.2143 9.29752 34.019 9.29752C35.0231 9.29752 35.4907 10.1487 35.4907 11.3729V16.5885H37.9775V11.1556C37.9775 10.9165 38.0137 10.6268 38.0826 10.4131C38.1779 10.0911 38.3748 9.80858 38.644 9.60755C38.9131 9.40652 39.24 9.29777 39.5761 9.29752C40.5911 9.29752 41.0841 10.1306 41.0841 11.5721V16.5885H43.5708V11.199C43.5708 8.35581 42.1244 7.22939 40.4968 7.22939C39.7718 7.22939 39.2027 7.41048 38.688 7.72559C38.253 7.9912 37.8663 8.37151 37.528 8.86651H37.4917C37.2916 8.36687 36.9417 7.94132 36.49 7.64821C36.0383 7.35511 35.5069 7.20881 34.9687 7.22939ZM48.6349 7.22939C47.0942 7.22939 45.8763 7.66402 45.2093 8.04433L45.695 9.71042C46.304 9.33011 47.2755 9.01138 48.1962 9.01138C49.7151 9.00776 49.9616 9.86978 49.9616 10.4239V10.5543C46.6484 10.5507 44.5568 11.6952 44.5568 14.0314C44.5568 15.4584 45.6225 16.7949 47.4749 16.7949C48.6167 16.7949 49.5701 16.3386 50.1392 15.6106H50.1972C50.1972 15.6106 50.5742 17.1933 52.6622 16.5885C52.5575 15.8568 52.5091 15.1182 52.5172 14.3791V11.1266C52.5172 9.05485 51.6291 7.22939 48.6349 7.22939ZM58.9696 7.22939C58.0163 7.22939 56.9324 7.84512 56.4757 9.1635H56.4068V7.43584H54.1666V16.5885H56.7222V11.9017C56.7222 11.653 56.7403 11.4284 56.7765 11.228C56.965 10.2428 57.719 9.61625 58.7956 9.61625C59.0929 9.61625 59.3031 9.64884 59.5315 9.68144V7.28734C59.347 7.24719 59.1585 7.22775 58.9696 7.22939ZM74.7745 11.6482C74.7099 11.6481 74.6459 11.6604 74.586 11.6844L69.5835 14.006C69.1123 14.2777 69.0434 15.0528 69.4458 15.7446C69.8445 16.4327 70.5514 16.7623 71.019 16.4943L75.5357 13.3287C75.7967 13.1114 75.8149 12.6369 75.572 12.2096C75.3726 11.8655 75.0536 11.6554 74.7745 11.6518M82.3108 11.6518C82.0317 11.659 81.7127 11.8691 81.5133 12.2168C81.2704 12.6406 81.2886 13.1187 81.5495 13.3324L86.0663 16.4979C86.5339 16.766 87.2371 16.44 87.6395 15.7482C88.0419 15.0564 87.9694 14.2813 87.4981 14.0097L82.4957 11.6844C82.4376 11.6587 82.3739 11.6451 82.3108 11.6518ZM21.5672 12.1842V13.3251C21.5698 13.4926 21.549 13.6596 21.5056 13.8213C21.3858 14.1673 21.1598 14.4666 20.8597 14.6767C20.5596 14.8868 20.2009 14.9968 19.8345 14.9912C19.1458 14.9912 18.602 14.6037 18.602 13.7815C18.602 12.5247 19.9904 12.177 21.5672 12.1842ZM50.0413 12.1842V13.3251C50.0439 13.4926 50.0231 13.6596 49.9797 13.8213C49.8601 14.1667 49.6346 14.4656 49.3353 14.6756C49.0359 14.8856 48.678 14.9961 48.3122 14.9912C47.6235 14.9912 47.0797 14.6037 47.0797 13.7815C47.0797 12.5247 48.4645 12.177 50.0413 12.1842ZM78.5408 13.9336C78.0515 13.9336 77.6455 14.1871 77.5911 14.5204L77.1053 20.0112C77.1053 20.5545 77.7433 21 78.5408 21C79.3383 21 79.9799 20.5545 79.9799 20.0112L79.4906 14.5204C79.4362 14.1871 79.0338 13.9336 78.5408 13.9336Z" fill="#666666"/>
</svg>
