<svg width="40" height="36" viewBox="0 0 40 36" fill="none" xmlns="http://www.w3.org/2000/svg">
<path d="M32.888 11.535C32.4623 11.389 32.033 11.2537 31.6005 11.1292C31.6731 10.8323 31.74 10.539 31.7994 10.2509C32.7741 5.5195 32.1369 1.70779 29.9605 0.452785C27.8737 -0.75034 24.4611 0.504192 21.0145 3.50372C20.6748 3.79986 20.3427 4.10454 20.0184 4.41747C19.8013 4.20939 19.5804 4.00535 19.3558 3.80544C15.7436 0.598254 12.123 -0.753465 9.94891 0.505129C7.86406 1.712 7.24672 5.29529 8.12422 9.77935C8.21152 10.2234 8.3101 10.6653 8.41984 11.1043C7.90734 11.25 7.41281 11.405 6.93953 11.57C2.70453 13.0465 0 15.3604 0 17.7606C0 20.2395 2.90344 22.7259 7.31438 24.2336C7.67199 24.3553 8.03257 24.4681 8.39578 24.5719C8.27786 25.0448 8.17313 25.5209 8.08172 25.9997C7.24516 30.4059 7.89844 33.9045 9.97766 35.1037C12.1252 36.3422 15.7295 35.0694 19.2391 32.0014C19.5236 31.7519 19.8019 31.4955 20.0738 31.2322C20.4249 31.571 20.7855 31.9 21.155 32.2187C24.5547 35.144 27.9122 36.3253 29.9894 35.1228C32.1348 33.8808 32.8322 30.1223 31.9269 25.5497C31.8556 25.1914 31.7756 24.835 31.687 24.4806C31.9402 24.4056 32.1886 24.3284 32.4308 24.2481C37.0164 22.7289 40 20.2726 40 17.7606C40 15.3517 37.2081 13.0222 32.888 11.535ZM31.8934 22.6262C31.6745 22.6985 31.4505 22.7686 31.2216 22.8364C30.7153 21.2337 30.0322 19.5297 29.1961 17.7689C29.9939 16.0501 30.6508 14.3678 31.1428 12.7756C31.552 12.894 31.9491 13.0189 32.3319 13.1506C36.0334 14.425 38.2912 16.3089 38.2912 17.7606C38.2912 19.3068 35.8528 21.3142 31.8934 22.6262ZM30.2506 25.8815C30.6509 27.9034 30.708 29.7315 30.4428 31.1608C30.2047 32.445 29.7256 33.3011 29.1331 33.644C27.8727 34.3737 25.1769 33.4253 22.2695 30.9234C21.9259 30.627 21.5905 30.3212 21.2637 30.0062C22.3909 28.7736 23.5173 27.3406 24.6167 25.749C26.5505 25.5775 28.3773 25.2969 30.0341 24.9139C30.1158 25.2433 30.188 25.5658 30.2506 25.8815ZM13.6369 33.5179C12.4053 33.9528 11.4244 33.9653 10.8314 33.6234C9.56969 32.8958 9.04516 30.0865 9.76062 26.3184C9.84568 25.8731 9.94306 25.4303 10.0527 24.9904C11.6911 25.3529 13.5047 25.6136 15.443 25.7708C16.5498 27.3281 17.7087 28.7595 18.8767 30.0129C18.6285 30.2531 18.3744 30.4871 18.1147 30.7148C16.5627 32.0714 15.0075 33.0339 13.6369 33.5179ZM7.86719 22.6167C5.91672 21.95 4.30594 21.0836 3.20188 20.1381C2.20969 19.2886 1.70891 18.445 1.70891 17.7606C1.70891 16.304 3.88031 14.4462 7.50203 13.1836C7.94156 13.0304 8.40156 12.8859 8.87891 12.7503C9.37953 14.3784 10.0361 16.0808 10.8284 17.8022C10.0258 19.549 9.35984 21.2786 8.85437 22.9259C8.52283 22.8309 8.19367 22.7278 7.86719 22.6167ZM9.80125 9.45107C9.04953 5.60935 9.54875 2.71138 10.8052 1.98404C12.1433 1.20935 15.1023 2.31388 18.2212 5.08325C18.4246 5.26424 18.6247 5.44891 18.8214 5.63716C17.6592 6.88513 16.5109 8.30591 15.4139 9.85404C13.5327 10.0284 11.7319 10.3084 10.0762 10.6836C9.97422 10.2752 9.88253 9.8641 9.80125 9.45107ZM27.0555 13.7118C26.6644 13.0364 26.2588 12.3694 25.8391 11.7114C27.1153 11.8728 28.3381 12.087 29.4864 12.3489C29.1417 13.4539 28.712 14.609 28.2063 15.7934C27.8366 15.092 27.4529 14.398 27.0555 13.7118ZM20.0192 6.85857C20.8073 7.71247 21.5967 8.66575 22.3731 9.70013C20.7981 9.62574 19.2205 9.62542 17.6455 9.69919C18.4227 8.67435 19.2188 7.72232 20.0192 6.85857ZM12.9378 13.7234C12.5454 14.404 12.1688 15.0937 11.8086 15.7918C11.3111 14.6117 10.8853 13.4512 10.5377 12.3306C11.6789 12.0753 12.8959 11.8665 14.1641 11.7081C13.7396 12.3701 13.3308 13.0422 12.9378 13.7234ZM14.2005 23.9345C12.8903 23.7883 11.655 23.5903 10.5141 23.3419C10.8672 22.2012 11.3023 21.0161 11.8106 19.8106C12.1723 20.5093 12.5504 21.1994 12.9445 21.8803C13.3498 22.5803 13.7695 23.2659 14.2005 23.9345ZM20.0664 28.7829C19.2564 27.9092 18.4486 26.9425 17.6597 25.9028C18.4256 25.9328 19.2064 25.9481 20 25.9481C20.8153 25.9481 21.6213 25.9298 22.4145 25.8945C21.6356 26.9529 20.8492 27.9211 20.0664 28.7829ZM28.2223 19.749C28.757 20.9678 29.2077 22.1467 29.5655 23.2678C28.4058 23.5325 27.1536 23.7456 25.8342 23.9039C26.257 23.2337 26.6664 22.5551 27.0622 21.8686C27.4646 21.1708 27.8514 20.4641 28.2223 19.749ZM25.582 21.0148C24.9761 22.0674 24.3361 23.0999 23.6631 24.1109C22.444 24.1973 21.2222 24.2402 20 24.2395C18.7552 24.2395 17.5444 24.2008 16.3784 24.1251C15.6878 23.1165 15.0356 22.0821 14.4233 21.0242C13.8137 19.9719 13.2446 18.8968 12.7167 17.8012C13.2432 16.7054 13.8108 15.6298 14.4183 14.5767L14.4181 14.5768C15.0253 13.5234 15.6722 12.4935 16.3577 11.4892C17.5472 11.3992 18.767 11.3523 19.9998 11.3523C21.2383 11.3523 22.4598 11.3997 23.6491 11.4903C24.3275 12.4931 24.9704 13.5195 25.5764 14.5676C26.1858 15.6185 26.7609 16.6888 27.3008 17.777C26.7664 18.8763 26.1931 19.9563 25.582 21.0148ZM29.107 1.93294C30.4464 2.70544 30.9673 5.8206 30.1258 9.90575C30.0718 10.1666 30.0119 10.4317 29.9461 10.7011C28.2864 10.3179 26.4844 10.0331 24.5977 9.85607C23.4986 8.29091 22.3597 6.86794 21.2164 5.63607C21.516 5.34725 21.8228 5.06591 22.1364 4.79232C25.0895 2.22247 27.8495 1.20779 29.107 1.93294ZM20 14.1887C21.9727 14.1887 23.5719 15.7879 23.5719 17.7606C23.5719 19.7333 21.9727 21.3325 20 21.3325C18.0273 21.3325 16.4281 19.7333 16.4281 17.7606C16.4281 15.7879 18.0273 14.1887 20 14.1887Z" fill="url(#paint0_linear_530_4)"/>
<defs>
<linearGradient id="paint0_linear_530_4" x1="20" y1="0" x2="20" y2="35.5886" gradientUnits="userSpaceOnUse">
<stop stopColor="#00D8FF"/>
<stop offset="1" stopColor="#046B7E"/>
</linearGradient>
</defs>
</svg>
